<svg width="152" height="44" viewBox="0 0 152 44" fill="none" xmlns="http://www.w3.org/2000/svg">
<g id="Group 215">
<path id="Vector" d="M43.3549 22.1361C43.3471 28.2851 40.7215 33.818 36.5297 37.6811C36.5273 37.6787 36.5224 37.6786 36.5176 37.6762C27.6659 34.9807 29.3302 30.1565 29.3302 30.1565C29.3302 30.1565 32.6104 26.0735 32.4341 23.2431C32.3268 21.5605 32.0458 20.7772 31.8322 20.4219C31.7255 20.2419 31.4848 20.193 31.3145 20.3167C30.1415 21.1857 25.449 24.9144 26.9451 28.1598C26.9451 28.1598 28.9438 31.9115 28.6602 33.1195C28.6602 33.1195 22.6404 29.0564 24.8347 22.3728C24.8347 22.3728 28.9078 19.9952 28.5502 16.3525C28.1901 12.7098 26.6208 11.5748 26.6208 11.5748C26.6208 11.5748 23.0432 14.3007 23.1069 17.7582C23.1114 18.016 23.1573 18.2713 23.2397 18.5146C23.4722 19.203 23.9928 20.9421 23.6779 21.9215C23.2873 23.1343 23.7963 26.2909 23.8181 26.4344C23.7283 26.2543 20.7865 20.318 20.9989 19.6326C21.2138 18.9375 21.9984 15.6464 20.7592 13.1283C19.8716 11.3231 18.3193 10.2659 17.5126 9.81266C17.2308 9.65426 16.8756 9.77538 16.7537 10.0743C16.1781 11.4522 14.9041 15.2338 16.9798 17.7165C19.5581 20.7979 22.0122 22.0434 23.4457 28.6489C23.4457 28.6489 21.884 27.2805 20.8428 25.8155C19.8283 24.3869 15.7564 19.9639 10.9521 23.7217C10.8012 23.8406 10.8544 24.079 11.0416 24.1205C11.9361 24.3283 13.9897 25.0458 16.2162 27.4532C16.7552 28.035 17.5548 28.2938 18.3307 28.1294C19.4981 27.8804 21.1105 27.564 21.6064 27.6011C22.416 27.6629 29.3669 35.7536 29.3669 35.7536L28.2752 35.6817C28.0054 35.6644 27.76 35.5255 27.6022 35.3089C27.3134 34.9049 26.7429 34.2356 25.9143 33.7969C25.1344 33.385 24.208 33.3498 23.3785 33.6599C21.9677 34.1906 19.1774 35.3444 18.5195 36.4402C18.4294 36.5908 18.5167 36.783 18.6868 36.8124C19.3772 36.9275 21.2539 37.1973 24.1472 37.2618C24.1836 37.2643 24.2201 37.2619 24.2542 37.2595C24.6773 37.2284 27.3642 37.0008 28.0847 36.3866C28.2356 36.2579 28.4302 36.1901 28.6296 36.1782C29.5949 36.1138 32.1867 36.2192 35.505 38.5551C31.8566 41.5143 27.2055 43.2882 22.1409 43.2818C10.4532 43.2719 0.985234 33.7775 1.00004 22.0825C1.01485 10.3875 10.5069 0.917032 22.2043 0.931843C33.9017 0.946653 43.3697 10.4411 43.3549 22.1361Z" fill="#24BEE0"/>
<path id="Vector_2" d="M72.7512 15.6863L72.7338 29.431L70.4799 29.4281L70.4918 20.0138L66.2881 29.4228L64.7248 29.4208L60.5231 20.0011L60.5112 29.4155L58.2573 29.4126L58.2747 15.668L60.7085 15.6711L65.5212 26.4555L70.3417 15.6832L72.7512 15.6863Z" fill="black"/>
<path id="Vector_3" d="M85.6165 24.8397L77.2915 24.8291C77.356 25.6996 77.6785 26.3979 78.2589 26.9262C78.8394 27.4546 79.549 27.718 80.3927 27.7191C81.606 27.7206 82.4624 27.2136 82.9646 26.2003L85.396 26.2034C85.064 27.2047 84.4673 28.0258 83.6034 28.6641C82.7394 29.3025 81.6668 29.6221 80.3878 29.6205C79.3472 29.6191 78.4139 29.3845 77.5902 28.9142C76.7666 28.4464 76.1206 27.7842 75.6549 26.9351C75.1867 26.0835 74.9545 25.0985 74.956 23.9776C74.9574 22.8567 75.1872 21.8723 75.6429 21.0219C76.0987 20.1715 76.739 19.5182 77.5638 19.0573C78.3886 18.5964 79.3347 18.3666 80.4021 18.368C81.4306 18.3693 82.3469 18.5941 83.1511 19.0449C83.9554 19.4933 84.5794 20.1239 85.0282 20.9365C85.4746 21.7492 85.6995 22.6807 85.6982 23.7359C85.6952 24.1395 85.668 24.5091 85.6165 24.8397ZM83.3431 23.0157C83.332 22.1841 83.0337 21.52 82.4557 21.0159C81.8752 20.5143 81.1583 20.263 80.3 20.2619C79.522 20.2609 78.8555 20.5081 78.3005 21.0009C77.7455 21.4938 77.4164 22.1645 77.3084 23.008L83.3431 23.0157Z" fill="black"/>
<path id="Vector_4" d="M87.8459 21.0448C88.3016 20.2017 88.9224 19.546 89.7084 19.0801C90.4943 18.6143 91.3675 18.3796 92.3303 18.3808C93.0427 18.3817 93.7452 18.5382 94.4353 18.8479C95.1278 19.16 95.6768 19.5716 96.0846 20.0851L96.0913 14.826L98.3647 14.8289L98.3461 29.4634L96.0728 29.4605L96.0749 27.8193C95.7046 28.3465 95.1935 28.7811 94.5414 29.1231C93.8894 29.4651 93.1403 29.6343 92.2966 29.6333C91.3484 29.6321 90.4807 29.3902 89.6959 28.9078C88.9112 28.4254 88.2945 27.7536 87.8385 26.8874C87.3849 26.0237 87.1576 25.0436 87.159 23.9494C87.1603 22.8577 87.3901 21.8879 87.8459 21.0448ZM95.6153 22.0442C95.3073 21.4895 94.9018 21.0683 94.4013 20.7759C93.9008 20.4859 93.3612 20.3394 92.7801 20.3386C92.199 20.3379 91.659 20.4782 91.1578 20.7621C90.6566 21.0459 90.25 21.4587 89.9405 22.0054C89.631 22.5521 89.4746 23.2011 89.4737 23.9524C89.4727 24.7037 89.6275 25.3628 89.9355 25.9297C90.2436 26.4966 90.6515 26.9299 91.1593 27.2272C91.6671 27.5244 92.2043 27.6734 92.7708 27.6741C93.3519 27.6749 93.8918 27.5297 94.3931 27.241C94.8943 26.9523 95.3009 26.5273 95.6104 25.966C95.9199 25.4072 96.0763 24.7509 96.0773 23.9996C96.0782 23.2508 95.9259 22.5965 95.6153 22.0442Z" fill="black"/>
<path id="Vector_5" d="M103.58 18.5724L101.326 18.5696L101.312 29.4671L103.566 29.4699L103.58 18.5724Z" fill="black"/>
<path id="Vector_6" d="M106.683 20.6986C107.138 19.8482 107.769 19.195 108.574 18.734C109.38 18.2731 110.302 18.0433 111.345 18.0446C112.662 18.0463 113.754 18.3613 114.616 18.9873C115.478 19.6157 116.061 20.5087 116.363 21.6689L113.929 21.6658C113.733 21.1258 113.418 20.7023 112.983 20.3978C112.548 20.0934 112.001 19.9419 111.342 19.9411C110.418 19.9399 109.684 20.2648 109.136 20.9181C108.588 21.5691 108.312 22.4829 108.31 23.6573C108.309 24.8316 108.58 25.7486 109.129 26.4082C109.675 27.0678 110.409 27.3994 111.333 27.4006C112.638 27.4023 113.502 26.8295 113.927 25.6825L116.361 25.6855C116.043 26.7939 115.449 27.6708 114.578 28.3238C113.706 28.9743 112.624 29.3012 111.333 29.2995C110.292 29.2982 109.369 29.0636 108.564 28.5933C107.76 28.1255 107.131 27.4634 106.678 26.6142C106.224 25.7627 105.997 24.7777 105.998 23.6568C105.997 22.5335 106.227 21.5491 106.683 20.6986Z" fill="black"/>
<path id="Vector_7" d="M120.668 18.5942L118.414 18.5913L118.401 29.4888L120.655 29.4917L120.668 18.5942Z" fill="black"/>
<path id="Vector_8" d="M131.436 18.9628C132.114 19.3186 132.643 19.8469 133.027 20.5476C133.407 21.2459 133.598 22.0898 133.597 23.0794L133.589 29.508L131.355 29.5052L131.362 23.4145C131.364 22.4396 131.121 21.6904 130.633 21.1694C130.145 20.6485 129.479 20.3875 128.636 20.3864C127.792 20.3854 127.123 20.6447 126.626 21.1644C126.132 21.6841 125.883 22.4326 125.882 23.4076L125.874 29.4982L123.62 29.4954L123.634 18.5979L125.888 18.6007L125.887 19.8456C126.257 19.3987 126.729 19.0492 127.303 18.7995C127.877 18.5498 128.487 18.4241 129.132 18.4249C129.99 18.4284 130.758 18.6069 131.436 18.9628Z" fill="black"/>
<path id="Vector_9" d="M146.37 24.9168L138.045 24.9063C138.109 25.7768 138.432 26.475 139.012 27.0034C139.593 27.5317 140.302 27.7952 141.146 27.7963C142.359 27.7978 143.216 27.2907 143.718 26.2775L146.149 26.2805C145.817 27.2819 145.221 28.1029 144.357 28.7413C143.493 29.3796 142.42 29.6992 141.141 29.6976C140.1 29.6963 139.167 29.4617 138.343 28.9914C137.52 28.5235 136.874 27.8614 136.408 27.0122C135.94 26.1606 135.708 25.1756 135.709 24.0547C135.711 22.9339 135.94 21.9495 136.396 21.099C136.852 20.2486 137.492 19.5954 138.317 19.1345C139.142 18.6736 140.088 18.4438 141.155 18.4451C142.184 18.4464 143.1 18.6713 143.904 19.1221C144.709 19.5705 145.333 20.201 145.781 21.0137C146.228 21.8263 146.453 22.7578 146.451 23.8131C146.451 24.2167 146.424 24.5862 146.37 24.9168ZM144.099 23.0928C144.088 22.2613 143.789 21.5971 143.211 21.0931C142.631 20.5915 141.914 20.3401 141.056 20.339C140.278 20.3381 139.611 20.5852 139.056 21.0781C138.501 21.571 138.172 22.2416 138.064 23.0852L144.099 23.0928Z" fill="black"/>
<path id="Vector_10" d="M148.54 29.2499C148.264 28.9723 148.126 28.6293 148.126 28.2209C148.127 27.8124 148.266 27.4697 148.543 27.1929C148.821 26.9161 149.164 26.7779 149.572 26.7784C149.968 26.7789 150.304 26.918 150.581 27.1955C150.857 27.473 150.996 27.816 150.995 28.2245C150.995 28.633 150.856 28.9756 150.578 29.2524C150.3 29.5293 149.965 29.6674 149.568 29.6669C149.16 29.6664 148.817 29.5274 148.54 29.2499Z" fill="#0E97B5"/>
<path id="Vector_11" d="M119.552 17.1581C120.352 17.1591 121.002 16.5089 121.003 15.7059C121.004 14.9029 120.356 14.2511 119.555 14.2501C118.755 14.2491 118.105 14.8993 118.104 15.7023C118.103 16.5053 118.751 17.1571 119.552 17.1581Z" fill="black"/>
<path id="Vector_12" d="M102.466 17.1366C103.266 17.1376 103.916 16.4875 103.917 15.6844C103.918 14.8814 103.27 14.2297 102.47 14.2286C101.669 14.2276 101.02 14.8778 101.019 15.6808C101.018 16.4838 101.666 17.1356 102.466 17.1366Z" fill="black"/>
</g>
</svg>
