<svg width="40" height="40" viewBox="0 0 40 40" fill="none" xmlns="http://www.w3.org/2000/svg">
<g clip-path="url(#clip0_100_530)">
<path d="M30.8865 9.1135C30.5811 8.80803 30.0865 8.80803 29.7818 9.1135C29.4764 9.41897 29.4764 9.9135 29.7818 10.2182C30.0865 10.5236 30.5811 10.5236 30.8865 10.2182C31.192 9.9135 31.192 9.41897 30.8865 9.1135Z" fill="#24BEE0"/>
<path d="M10.2181 29.7818C9.91338 29.4764 9.41807 29.4764 9.11338 29.7818C8.80791 30.0865 8.80791 30.5818 9.11338 30.8865C9.41807 31.1919 9.91338 31.1919 10.2181 30.8865C10.5235 30.5818 10.5235 30.0865 10.2181 29.7818Z" fill="#24BEE0"/>
<path d="M38.8541 12.1942L27.806 1.14623C26.2795 -0.381269 23.8089 -0.381503 22.2815 1.14599L1.14502 22.2824C-0.381698 23.8092 -0.382949 26.2797 1.14502 27.8066L12.1931 38.8546C12.1931 38.8546 12.1931 38.8546 12.1933 38.8548C13.7196 40.3821 16.1901 40.3823 17.7176 38.8548L38.854 17.7185C40.3807 16.1917 40.382 13.7211 38.8541 12.1942ZM37.7492 16.6136L16.6128 37.7501C15.6967 38.6662 14.2148 38.6673 13.2984 37.7503C13.2984 37.7502 13.2983 37.7501 13.2982 37.7501L2.24978 26.7016C1.33338 25.7859 1.33314 24.3038 2.24994 23.3873L23.3862 2.25084C24.3026 1.33443 25.7844 1.33373 26.7008 2.25084L37.7492 13.2993C38.6658 14.215 38.666 15.6971 37.7492 16.6136Z" fill="#24BEE0"/>
<path d="M34.7538 12.9803C33.5352 11.762 31.5527 11.7619 30.3344 12.9802C29.1129 14.2007 29.1121 16.1782 30.3342 17.3992C31.5558 18.621 33.5322 18.621 34.7538 17.3992V17.3992C35.9747 16.1784 35.9748 14.2014 34.7538 12.9803ZM33.649 16.2944C33.0382 16.9053 32.0504 16.9058 31.4388 16.2942C30.8283 15.6842 30.8279 14.6959 31.439 14.0853C32.0484 13.4759 33.0397 13.476 33.649 14.0853C34.2592 14.6954 34.2592 15.6842 33.649 16.2944Z" fill="#24BEE0"/>
<path d="M28.9955 18.7389C27.7769 17.5205 25.7944 17.5204 24.5762 18.7387C23.3544 19.9594 23.3539 21.9365 24.5762 23.1588C25.7945 24.3762 27.7769 24.3762 28.9953 23.1588C28.9955 23.1587 28.9956 23.1585 28.9958 23.1583C30.2136 21.9393 30.2135 19.9569 28.9955 18.7389ZM27.8907 22.0537C27.2812 22.6626 26.2898 22.6624 25.6808 22.0537C25.0701 21.4431 25.0694 20.4545 25.6808 19.8437C26.2901 19.2344 27.2814 19.2344 27.8907 19.8437C28.4996 20.4526 28.4996 21.444 27.8907 22.0537Z" fill="#24BEE0"/>
<path d="M23.1586 24.5756C21.9375 23.3546 19.9603 23.3534 18.739 24.5756C17.5206 25.7942 17.5206 27.7768 18.739 28.9953C19.9572 30.2134 21.9396 30.2132 23.1584 28.9955C23.1585 28.9954 23.1587 28.9952 23.1589 28.995C24.3761 27.7766 24.3761 25.7942 23.1586 24.5756ZM22.0536 27.8907C21.4439 28.4993 20.4528 28.4994 19.8439 27.8904C19.2346 27.2811 19.2346 26.2897 19.8442 25.6802C20.4533 25.0705 21.4419 25.0685 22.0536 25.6801C22.6625 26.2897 22.6625 27.2813 22.0536 27.8907Z" fill="#24BEE0"/>
<path d="M17.3994 30.3343C16.1787 29.1127 14.2013 29.1121 12.9802 30.3341C11.7618 31.5527 11.7618 33.5353 12.9802 34.7538C14.1985 35.972 16.1807 35.9721 17.3991 34.7538C17.3991 34.7538 17.3991 34.7538 17.3991 34.7537C18.6176 33.5352 18.6176 31.5526 17.3994 30.3343ZM16.2943 33.6489C15.6852 34.2579 14.6942 34.2579 14.0852 33.6489C13.4759 33.0396 13.4759 32.0482 14.0854 31.4386C14.6955 30.828 15.6837 30.8278 16.2943 31.4388C16.9036 32.0482 16.9036 33.0397 16.2943 33.6489Z" fill="#24BEE0"/>
<path d="M27.0193 5.24613C25.8009 4.02793 23.8187 4.02769 22.6004 5.2462C21.3819 6.46472 21.3819 8.44729 22.6001 9.66557C23.8212 10.8875 25.7985 10.8875 27.0195 9.66557C28.2377 8.44706 28.2376 6.46456 27.0193 5.24613ZM25.9144 8.56104C25.9143 8.56112 25.9142 8.5612 25.9141 8.56128C25.304 9.1719 24.3158 9.17214 23.7052 8.56112C23.0959 7.95175 23.0959 6.96026 23.7052 6.35105C24.3144 5.74191 25.3052 5.74191 25.9144 6.35105C26.5237 6.96034 26.5237 7.95175 25.9144 8.56104Z" fill="#24BEE0"/>
<path d="M21.261 11.0047C20.0429 9.78678 18.0604 9.78662 16.8411 11.0051C15.6239 12.2234 15.6239 14.2058 16.8414 15.4244C18.0629 16.6458 20.04 16.6464 21.2612 15.4242C22.4794 14.2057 22.4793 12.2232 21.261 11.0047ZM20.1561 14.3196C20.1561 14.3197 20.156 14.3197 20.1559 14.3198C19.5468 14.9294 18.5582 14.9315 17.9465 14.3199C17.3375 13.7104 17.3375 12.7188 17.9459 12.1098C18.555 11.5012 19.5467 11.5 20.1561 12.1096C20.7654 12.7189 20.7654 13.7103 20.1561 14.3196Z" fill="#24BEE0"/>
<path d="M15.4242 16.841C14.2058 15.6237 12.2234 15.6236 11.0046 16.8416C9.7868 18.0605 9.78688 20.043 11.0048 21.2609C12.2232 22.4791 14.2056 22.4796 15.4242 21.2612C16.6459 20.0405 16.6465 18.0633 15.4242 16.841ZM14.3199 20.1558C14.3198 20.1559 14.3198 20.156 14.3197 20.1561C13.7104 20.7654 12.7191 20.7654 12.1098 20.1561C11.5006 19.5472 11.5008 18.5555 12.1095 17.9463C12.7185 17.3377 13.7103 17.3371 14.3197 17.9461C14.9301 18.5564 14.9312 19.5451 14.3199 20.1558Z" fill="#24BEE0"/>
<path d="M9.66587 22.6008C8.44423 21.3789 6.46798 21.3788 5.24627 22.6006C4.02541 23.8215 4.02525 25.7984 5.24627 27.0195C6.46462 28.2377 8.44704 28.2382 9.66563 27.0198C10.8871 25.7994 10.888 23.8217 9.66587 22.6008ZM8.56126 25.9144C8.56118 25.9145 8.5611 25.9146 8.56103 25.9147C7.95173 26.524 6.96033 26.524 6.35103 25.9147C5.74088 25.3046 5.74072 24.3158 6.35103 23.7055C6.96189 23.0946 7.9497 23.0941 8.56126 23.7058C9.17188 24.3159 9.17188 25.3042 8.56126 25.9144Z" fill="#24BEE0"/>
<path d="M28.6763 11.3234C28.3713 11.0186 27.8765 11.0184 27.5715 11.3234L11.3226 27.5716C11.0175 27.8767 11.0174 28.3714 11.3226 28.6765C11.6277 28.9816 12.1224 28.9816 12.4274 28.6765L28.6763 12.4283C28.9814 12.1233 28.9815 11.6286 28.6763 11.3234Z" fill="#24BEE0"/>
</g>
<defs>
<clipPath id="clip0_100_530">
<rect width="40" height="40" fill="white"/>
</clipPath>
</defs>
</svg>
