<svg width="32" height="40" viewBox="0 0 32 40" fill="none" xmlns="http://www.w3.org/2000/svg">
<path d="M28.9485 32.9698L28.3083 31.0491C30.2088 29.0162 31.2499 26.3879 31.2499 23.5938C31.2499 18.6731 27.9639 14.3713 23.3428 13.0264L25.2578 9.70941C25.4735 9.33574 25.3454 8.858 24.9718 8.64222L24.2952 8.2516L25.0764 6.89848L25.753 7.2891C26.1258 7.50433 26.6039 7.37769 26.8202 7.00316L28.3827 4.29692C28.5983 3.92348 28.4703 3.44543 28.0967 3.22973L22.6843 0.104738C22.3107 -0.110887 21.8328 0.0170817 21.6171 0.390675L20.0546 3.09692C19.8389 3.47036 19.9669 3.9484 20.3405 4.1641L21.0171 4.55473L20.2358 5.90785L19.5593 5.51723C19.1859 5.3016 18.7077 5.42957 18.4921 5.80316L12.6327 15.9523L11.9562 15.5617C11.5829 15.346 11.1047 15.474 10.889 15.8476L9.32647 18.5539C9.11069 18.9276 9.23873 19.4053 9.6124 19.6211L17.7311 24.3086C18.1022 24.523 18.5813 24.3985 18.7983 24.0227L20.3608 21.3163C20.5766 20.9427 20.4486 20.4649 20.0749 20.2492L19.3983 19.8585L19.9753 18.8592C22.6992 18.664 25 20.8515 25 23.5938C25 24.4298 24.7844 25.228 24.3734 25.9362C23.3593 25.4243 22.2393 25.1563 21.0937 25.1563C19.4574 25.1563 17.8687 25.7094 16.5865 26.7188H8.96248C7.47366 26.7188 6.13483 27.5461 5.46827 28.8782L4.76983 30.2759C4.64882 30.518 4.66179 30.8055 4.80413 31.0359C4.94648 31.2662 5.19796 31.4063 5.46866 31.4063H13.76L13.2391 32.9688H2.34375V32.9687C1.0514 32.9687 0 34.0201 0 35.3125V39.2187C0 39.6501 0.349765 40 0.781249 40H30.4687C30.9002 40 31.2499 39.6501 31.2499 39.2187V35.3125C31.2499 34.0344 30.2214 32.9926 28.9485 32.9698ZM22.5796 1.84848L26.639 4.19223L25.8578 5.54527C24.9541 5.02356 22.8527 3.8102 21.7984 3.20153L22.5796 1.84848ZM22.3703 5.33598L23.7234 6.11723L22.9421 7.47035L21.5891 6.6891L22.3703 5.33598ZM17.8359 22.5648L11.0703 18.6586L11.8515 17.3055C12.5697 17.7201 16.9911 20.2729 17.9404 20.821C17.9404 20.8211 17.9405 20.8211 17.9407 20.8212C17.9407 20.8212 17.9408 20.8213 17.9409 20.8213L18.6172 21.2117L17.8359 22.5648ZM18.0452 19.0773L13.9858 16.7335L19.4547 7.26097C21.0446 8.17894 21.9774 8.71753 22.4936 9.01558C22.3756 8.94738 22.2831 8.89402 22.2724 8.88785C22.292 8.89917 22.5973 9.07542 23.514 9.60472C22.7066 11.0033 18.7296 17.8919 18.0452 19.0773ZM20.8693 17.3108L22.5346 14.4263C26.7106 15.4425 29.6874 19.2135 29.6874 23.5938C29.6874 25.7143 28.9872 27.7236 27.6954 29.3661C27.2295 28.368 26.5403 27.4842 25.6858 26.7884C26.2613 25.8264 26.5625 24.7363 26.5625 23.5938C26.5625 20.3043 24.0556 17.5963 20.8693 17.3108ZM21.0937 26.7188C23.5854 26.7188 25.7526 28.3233 26.522 30.631L27.3012 32.9687H14.8863L15.6654 30.6314C16.4511 28.2747 18.6554 26.7188 21.0937 26.7188ZM6.73257 29.8437C6.78663 29.7805 7.28405 28.2734 8.96256 28.2734H15.1148C14.7779 28.7577 14.5001 29.2907 14.2889 29.8437H6.73257ZM29.6874 38.4375H1.5625V35.3125C1.5625 34.8817 1.91297 34.5312 2.34375 34.5312C2.98671 34.5312 27.5778 34.5312 28.9062 34.5312C29.3371 34.5312 29.6874 34.8817 29.6874 35.3125V38.4375Z" fill="#24BEE0"/>
<path d="M22.5889 9.07043C22.6361 9.0977 22.6793 9.12262 22.7184 9.1452C22.6754 9.12036 22.6315 9.09504 22.5889 9.07043Z" fill="#24BEE0"/>
<path d="M22.5835 9.06749C22.5852 9.06851 22.5869 9.06944 22.5887 9.07046C22.5869 9.06944 22.5852 9.06851 22.5835 9.06749Z" fill="#24BEE0"/>
<path d="M22.4937 9.01552C22.4962 9.017 22.4987 9.01841 22.5012 9.01989C22.4987 9.01841 22.4962 9.01692 22.4937 9.01552Z" fill="#24BEE0"/>
<path d="M22.5012 9.01993C22.5299 9.03649 22.5575 9.05243 22.5836 9.06751C22.5554 9.05118 22.5277 9.03516 22.5012 9.01993Z" fill="#24BEE0"/>
<path d="M22.7185 9.14522C22.7258 9.14944 22.733 9.15358 22.7402 9.15772C22.733 9.15358 22.726 9.14951 22.7185 9.14522Z" fill="#24BEE0"/>
<path d="M23.0425 9.3325C23.0451 9.33407 23.0474 9.3354 23.0493 9.33641C23.0475 9.3354 23.0452 9.33407 23.0425 9.3325Z" fill="#24BEE0"/>
<path d="M23.0229 9.32118C23.0312 9.32595 23.0376 9.3297 23.0426 9.33251C23.0375 9.32954 23.031 9.32579 23.0229 9.32118Z" fill="#24BEE0"/>
<path d="M23.0493 9.33641C23.0563 9.34047 23.0567 9.34071 23.0493 9.33641V9.33641Z" fill="#24BEE0"/>
<path d="M22.9138 9.25804C22.9196 9.2614 22.9253 9.26468 22.9307 9.26781C22.9252 9.2646 22.9196 9.26132 22.9138 9.25804Z" fill="#24BEE0"/>
<path d="M22.9304 9.26773C22.969 9.29 23.001 9.30851 23.0229 9.32117C23.0028 9.30953 22.9726 9.29211 22.9304 9.26773Z" fill="#24BEE0"/>
<path d="M22.8882 9.24345C22.8969 9.24845 22.9053 9.2533 22.9135 9.25806C22.9055 9.25338 22.897 9.24853 22.8882 9.24345Z" fill="#24BEE0"/>
<path d="M22.74 9.1577C22.7984 9.19145 22.8476 9.21981 22.8883 9.24332C22.8435 9.21746 22.7928 9.18817 22.74 9.1577Z" fill="#24BEE0"/>
</svg>
