<svg width="40" height="40" viewBox="0 0 40 40" fill="none" xmlns="http://www.w3.org/2000/svg">
<path d="M38.4272 27.3067C38.4272 25.6013 39.41 23.1178 39.8048 21.6254C40.7898 17.9032 37.9309 14.0975 33.8445 14.0447C33.8412 14.0447 33.8378 14.0447 33.8345 14.0447H28.0659C28.0625 14.0447 28.0592 14.0447 28.0558 14.0447C26.7175 14.062 25.4646 14.4804 24.4244 15.2428C23.9822 14.1858 23.2835 13.2401 22.3871 12.5068C21.3402 11.6504 20.062 11.1182 18.724 10.9678V10.1423C18.724 8.85178 17.6741 7.80186 16.3835 7.80186H14.8232V4.68109H17.9439C18.3747 4.68109 18.724 4.33179 18.724 3.90093V3.12078H22.3018L23.6335 4.45257C23.7859 4.60491 23.9856 4.68109 24.1852 4.68109C24.3848 4.68109 24.5846 4.60491 24.7368 4.45257C25.0415 4.14788 25.0415 3.6539 24.7368 3.34921L23.1765 1.7889C23.0303 1.64265 22.8318 1.56039 22.6249 1.56039H18.5899C18.2678 0.652343 17.4007 0 16.3836 0H8.58186C7.29131 0 6.24139 1.04992 6.24139 2.34054V3.90085C6.24139 4.33171 6.59069 4.68101 7.02155 4.68101H10.1422V7.80171H8.58194C7.29139 7.80171 6.24147 8.85162 6.24147 10.1422V10.9659C2.73554 11.3554 0 14.336 0 17.9439V18.412C0 19.1897 0 35.2724 0 36.0438C0 38.1947 1.74992 39.9446 3.90085 39.9446H21.0646C22.2688 39.9446 23.3757 39.3971 24.1035 38.4914C25.2414 39.44 26.6965 39.9368 28.0658 39.9368L33.7462 39.9376C38.0054 39.9034 40.7711 36.0364 39.805 32.3724C39.3931 30.8098 38.4272 29.0032 38.4272 27.3067ZM7.8017 3.12078V2.34062C7.8017 1.91047 8.1517 1.56047 8.58186 1.56047H16.3836C16.8137 1.56047 17.1637 1.91047 17.1637 2.34062V3.12078H14.043H10.9223H7.8017ZM13.2629 4.68109V7.80178H11.7026V4.68109H13.2629ZM7.8017 10.1423C7.8017 9.71217 8.1517 9.36217 8.58186 9.36217H10.9223H14.043H16.3835C16.8136 9.36217 17.1636 9.71217 17.1636 10.1423V10.9225H7.8017V10.1423ZM1.56031 19.1922H9.36201C9.79287 19.1922 10.1422 18.8429 10.1422 18.412C10.1422 17.9811 9.79287 17.6318 9.36201 17.6318H1.56984C1.73218 14.7653 4.11499 12.4828 7.02147 12.4828H17.9438C20.3795 12.4828 22.5301 14.1254 23.1935 16.4373C22.9018 16.8093 22.6557 17.2086 22.4592 17.6319H15.6033C15.1725 17.6319 14.8232 17.9812 14.8232 18.4121C14.8232 18.8429 15.1725 19.1844 15.6033 19.1844H21.9769C21.8449 19.9919 21.8834 20.8254 22.0953 21.6254C22.4898 23.1168 23.4729 25.6012 23.4729 27.3067C23.4729 28.7459 22.7769 30.2645 22.3074 31.6749H1.56031V19.1922ZM21.0646 38.3844H3.90085C2.61031 38.3844 1.56039 37.3345 1.56039 36.0438V33.2353H21.937C21.7853 34.6657 22.1692 36.1228 23.0228 37.3248C22.596 37.9789 21.8666 38.3844 21.0646 38.3844ZM33.8242 38.3845L28.1539 38.3852L28.0758 38.3845C25.0408 38.3454 22.8307 35.5278 23.6329 32.6651C24.0396 31.2099 25.0332 29.2872 25.0332 27.3067C25.0332 25.3043 23.9982 22.7172 23.6036 21.2261C22.8708 18.4592 25.041 15.639 28.0711 15.5972H33.8289C36.8787 15.6394 39.0231 18.4795 38.2963 21.2263C37.902 22.7175 36.8668 25.3045 36.8668 27.3068C36.8668 29.3402 37.9084 31.3 38.2962 32.7703C39.0216 35.5218 36.8763 38.3449 33.8242 38.3845Z" fill="#24BEE0"/>
</svg>
