<svg width="40" height="40" viewBox="0 0 40 40" fill="none" xmlns="http://www.w3.org/2000/svg">
<path d="M8.28125 14.5311C7.85 14.5311 7.5 14.8811 7.5 15.3124C7.5 15.7436 7.85 16.0936 8.28125 16.0936C8.71251 16.0936 9.06251 15.7436 9.06251 15.3124C9.06251 14.8811 8.71251 14.5311 8.28125 14.5311Z" fill="#24BEE0"/>
<path d="M27.0313 16.0936H23.125V12.1874C23.125 11.756 22.7752 11.4061 22.3438 11.4061H17.6563C17.2249 11.4061 16.875 11.756 16.875 12.1874V16.0936H12.9688C12.5373 16.0936 12.1875 16.4435 12.1875 16.8749V21.5624C12.1875 21.9938 12.5373 22.3437 12.9688 22.3437H16.875V26.2499C16.875 26.6813 17.2249 27.0312 17.6563 27.0312H22.3438C22.7752 27.0312 23.125 26.6813 23.125 26.2499V22.3437H27.0313C27.4627 22.3437 27.8126 21.9938 27.8126 21.5624V16.8749C27.8126 16.4435 27.4627 16.0936 27.0313 16.0936ZM26.2501 20.7812H22.3438C21.9124 20.7812 21.5625 21.131 21.5625 21.5624V25.4687H18.4375V21.5624C18.4375 21.131 18.0877 20.7812 17.6563 20.7812H13.75V17.6562H17.6563C18.0877 17.6562 18.4375 17.3063 18.4375 16.8749V12.9686H21.5625V16.8749C21.5625 17.3063 21.9124 17.6562 22.3438 17.6562H26.2501V20.7812Z" fill="#24BEE0"/>
<path d="M32.0607 2.40165C30.7958 3.2229 29.3268 3.65689 27.8126 3.65689C25.4968 3.65689 23.3139 2.6379 21.8237 0.861097C21.8236 0.861097 21.8236 0.861097 21.8236 0.861097C21.3646 0.313907 20.6999 0 20.0001 0C19.3002 0 18.6355 0.313907 18.1765 0.861019C16.6862 2.63782 14.5032 3.65681 12.1875 3.65681C10.6733 3.65681 9.20432 3.22275 7.93947 2.40157C6.3947 1.39899 4.375 2.57939 4.375 4.399V20.3343C4.375 23.8789 5.51204 27.3421 7.57642 30.0859C12.6835 36.8765 19.4083 39.8148 19.692 39.9366C19.7904 39.9788 19.8953 40 20.0001 40C20.1048 40 20.2098 39.9788 20.3081 39.9366C20.5919 39.8148 27.3167 36.8766 32.4236 30.0868C34.4882 27.3421 35.6251 23.8786 35.6251 20.3343V4.39908C35.6251 2.57931 33.605 1.39899 32.0607 2.40165ZM31.175 29.1475C26.9279 34.794 21.3574 37.7049 19.9996 38.358C18.6412 37.7065 13.0815 34.8064 8.8251 29.1467C6.96298 26.6719 5.93751 23.5424 5.93751 20.3344V4.39908C5.93751 3.80431 6.59384 3.39111 7.0886 3.7122C8.60744 4.69822 10.3706 5.2194 12.1875 5.2194C14.9664 5.2194 17.5858 3.99689 19.3736 1.86524C19.5373 1.67001 19.7597 1.56251 20.0001 1.56251C20.2404 1.56251 20.4628 1.67001 20.6265 1.86524C22.4144 3.99681 25.0337 5.2194 27.8126 5.2194C29.6295 5.2194 31.3926 4.69822 32.9115 3.7122C33.3982 3.39603 34.0626 3.79533 34.0626 4.39908V20.3343C34.0626 23.542 33.0371 26.6719 31.175 29.1475Z" fill="#24BEE0"/>
<path d="M32.1695 6.2517C31.9622 6.10529 31.6968 6.06873 31.4576 6.15349C30.2822 6.57053 29.0558 6.78193 27.8126 6.78193C25.1272 6.78193 22.5374 5.7906 20.5202 3.99052C20.2239 3.72606 19.7762 3.72606 19.4799 3.99052C17.4628 5.7906 14.8729 6.78193 12.1875 6.78193C10.9443 6.78193 9.7179 6.57053 8.5425 6.15349C8.30313 6.06873 8.03789 6.10529 7.83055 6.2517C7.62336 6.3981 7.50008 6.63607 7.50008 6.88982V12.1875C7.50008 12.6189 7.84992 12.9688 8.28133 12.9688C8.71274 12.9688 9.06258 12.6189 9.06258 12.1875V7.94584C10.0827 8.21069 11.1298 8.34452 12.1876 8.34452C15.031 8.34452 17.7794 7.37318 20.0001 5.59599C22.2208 7.37318 24.9693 8.34452 27.8127 8.34452C28.8705 8.34452 29.9175 8.21069 30.9377 7.94584V20.3344C30.9377 22.8696 30.1351 25.3316 28.6772 27.2672C25.723 31.1966 22.1149 33.6297 20.0075 34.8276C17.8834 33.614 14.2521 31.1625 11.3227 27.2685C9.86524 25.3317 9.06251 22.8691 9.06251 20.3343V18.4374C9.06251 18.006 8.71266 17.6562 8.28125 17.6562C7.84985 17.6562 7.5 18.006 7.5 18.4374V20.3343C7.5 23.2059 8.41422 26.0022 10.0742 28.2079C13.3594 32.5752 17.4711 35.2196 19.6297 36.4072C19.7469 36.4717 19.8765 36.5039 20.0062 36.5039C20.1351 36.5039 20.2642 36.472 20.3809 36.4082C22.5228 35.2376 26.611 32.6154 29.9256 28.2067C31.5857 26.0023 32.5 23.2066 32.5 20.3343V6.88975C32.5 6.636 32.3767 6.3981 32.1695 6.2517Z" fill="#24BEE0"/>
</svg>
